<svg xmlns="http://www.w3.org/2000/svg" width="35.176" height="33.809" viewBox="0 0 35.176 33.809">
  <g id="그룹_10954" data-name="그룹 10954" transform="translate(0.698 0.963)">
    <path id="패스_1216" data-name="패스 1216" d="M144.135,225h0c-.714,3.9-5.135,5.49-5.135,9.533a5.133,5.133,0,0,0,10.266,0C149.266,230.49,144.848,228.9,144.135,225Z" transform="translate(-131.667 -214.001)" fill="none" stroke="#b1cbd0" stroke-linejoin="round" stroke-width="2"/>
    <path id="패스_1217" data-name="패스 1217" d="M161.666,227c-.515,2.229-3.666,3.684-3.666,6.6a3.666,3.666,0,0,0,7.333,0C165.333,230.684,162.181,229.228,161.666,227Z" transform="translate(-136.734 -214.534)" fill="none" stroke="#b1cbd0" stroke-linejoin="round" stroke-width="2"/>
    <path id="패스_1218" data-name="패스 1218" d="M153.933,216c-.407,1.472-2.933,3.743-2.933,5.866a2.933,2.933,0,0,0,5.866,0C156.866,219.743,154.34,217.472,153.933,216Z" transform="translate(-134.867 -211.6)" fill="none" stroke="#b1cbd0" stroke-linejoin="round" stroke-width="2"/>
    <path id="패스_1219" data-name="패스 1219" d="M158.24,211.628h0a15.484,15.484,0,0,1,11.6,18.571c-.081.354-.179.7-.283,1.043" transform="translate(-136.798 -210.434)" fill="none" stroke="#b1cbd0" stroke-miterlimit="10" stroke-width="2"/>
    <path id="패스_1220" data-name="패스 1220" d="M144.374,211.626a15.482,15.482,0,0,0-11.323,19.616" transform="translate(-129.899 -210.434)" fill="none" stroke="#b1cbd0" stroke-miterlimit="10" stroke-width="2"/>
    <path id="패스_1221" data-name="패스 1221" d="M138.045,246.605a15.486,15.486,0,0,0,22.649,0" transform="translate(-131.412 -219.762)" fill="none" stroke="#b1cbd0" stroke-miterlimit="10" stroke-width="2"/>
    <path id="패스_1222" data-name="패스 1222" d="M134,232.926l-1.846,4L129,233.849" transform="translate(-129 -216.114)" fill="none" stroke="#b1cbd0" stroke-miterlimit="10" stroke-width="2"/>
    <path id="패스_1223" data-name="패스 1223" d="M162.953,247l4.384-.4-1.085,4.267" transform="translate(-138.055 -219.762)" fill="none" stroke="#b1cbd0" stroke-miterlimit="10" stroke-width="2"/>
    <path id="패스_1224" data-name="패스 1224" d="M160.778,214.791l-2.538-3.6L162.478,210" transform="translate(-136.798 -210)" fill="none" stroke="#b1cbd0" stroke-miterlimit="10" stroke-width="2"/>
  </g>
</svg>
