<svg xmlns="http://www.w3.org/2000/svg" width="35.591" height="35.679" viewBox="0 0 35.591 35.679">
  <g id="그룹_10957" data-name="그룹 10957" transform="translate(1.367 1)">
    <path id="패스_1235" data-name="패스 1235" d="M304.846,50a1.708,1.708,0,0,0-1.467.733c-.62.88-4.455,6.364-4.455,6.364l5.921,3.9,2.933-4.4" transform="translate(-291.692 -50)" fill="none" stroke="#b1cbd0" stroke-miterlimit="10" stroke-width="2"/>
    <path id="패스_1236" data-name="패스 1236" d="M307,50c.9,0,1.548,1.258,2.185,2.362l3.892,6.836-1.722.978,8.017,2.393,1.936-8.151-1.7.979c-.48-.831-1.878-3.337-2.314-4.067A2.085,2.085,0,0,0,315.066,50Z" transform="translate(-293.846 -50)" fill="none" stroke="#b1cbd0" stroke-miterlimit="10" stroke-width="2"/>
    <path id="패스_1237" data-name="패스 1237" d="M295.156,86.725a3.205,3.205,0,0,0,2.819,1.608h6.6V81h-5.133" transform="translate(-290.687 -58.268)" fill="none" stroke="#b1cbd0" stroke-miterlimit="10" stroke-width="2"/>
    <path id="패스_1238" data-name="패스 1238" d="M293.531,82.625c-.452-.784.315-1.969.953-3.073l3.974-6.788,1.708,1-1.936-8.139-8.027,2.4,1.7.981c-.48.831-1.951,3.3-2.365,4.038a2.085,2.085,0,0,0-.037,2.6l4.033,6.985Z" transform="translate(-289.062 -54.167)" fill="none" stroke="#b1cbd0" stroke-miterlimit="10" stroke-width="2"/>
    <path id="패스_1239" data-name="패스 1239" d="M330.535,76.746a1.71,1.71,0,0,0,.1-1.637c-.452-.977-3.283-7.04-3.283-7.04l-6.341,3.177,2.344,4.741" transform="translate(-297.582 -54.819)" fill="none" stroke="#b1cbd0" stroke-miterlimit="10" stroke-width="2"/>
    <path id="패스_1240" data-name="패스 1240" d="M327.866,79.395c-.453.784-1.659.805-2.933.805h-8.066V78L311,83.866l5.866,5.866v-2.2c.959,0,3.549.013,4.4,0,1.067-.017,1.885.029,2.567-1.152l4.033-6.986Z" transform="translate(-294.913 -57.468)" fill="none" stroke="#b1cbd0" stroke-miterlimit="10" stroke-width="2"/>
  </g>
</svg>
