<svg xmlns="http://www.w3.org/2000/svg" width="32.745" height="34.014" viewBox="0 0 32.745 34.014">
  <g id="그룹_10956" data-name="그룹 10956" transform="translate(0.947 1)">
    <path id="패스_1229" data-name="패스 1229" d="M138.085,303.628a3.428,3.428,0,0,1,1.985-4.4,3.388,3.388,0,0,1,4.381,1.98" transform="translate(-133.565 -292.4)" fill="none" stroke="#fff" stroke-miterlimit="10" stroke-width="2"/>
    <path id="패스_1230" data-name="패스 1230" d="M156.1,327.948a2.946,2.946,0,0,1-1.367,3.873,2.807,2.807,0,0,1-3.811-1.3" transform="translate(-137.046 -300.121)" fill="none" stroke="#fff" stroke-miterlimit="10" stroke-width="2"/>
    <path id="패스_1231" data-name="패스 1231" d="M136.152,319.411c-2.8-3.976-1.422-9.948.9-12.042,6.2-5.6,13.017-1.876,19.075-4.891,2.052,5.833-.619,13.083-6.265,17.371-3.8,2.887-8.166,1.729-10.326.854" transform="translate(-132.691 -293.328)" fill="none" stroke="#fff" stroke-miterlimit="10" stroke-width="2"/>
    <path id="패스_1232" data-name="패스 1232" d="M132,327.56c3.2-9.425,12.178-13.266,17.727-16.676" transform="translate(-132 -295.57)" fill="none" stroke="#fff" stroke-miterlimit="10" stroke-width="2"/>
    <path id="패스_1233" data-name="패스 1233" d="M156.133,292.582A2.567,2.567,0,1,1,153.567,290,2.574,2.574,0,0,1,156.133,292.582Z" transform="translate(-137.067 -290)" fill="none" stroke="#fff" stroke-miterlimit="10" stroke-width="2"/>
    <path id="패스_1234" data-name="패스 1234" d="M171.6,325.3a3.3,3.3,0,1,1-3.3-3.3A3.3,3.3,0,0,1,171.6,325.3Z" transform="translate(-140.801 -298.534)" fill="none" stroke="#fff" stroke-miterlimit="10" stroke-width="2"/>
  </g>
</svg>
