<svg xmlns="http://www.w3.org/2000/svg" width="53.42" height="46" viewBox="0 0 53.42 46"><g transform="translate(-157 -9)"><rect width="47" height="46" rx="23" transform="translate(157 9)" fill="#097db6"/><path d="M1.792,0A1.767,1.767,0,0,1,3.585,2.056C3.412,3.326,1.1,4.848,1.139,4.8,1.3,3.7,0,3.191,0,2.056A1.938,1.938,0,0,1,1.792,0Z" transform="matrix(0.94, 0.342, -0.342, 0.94, 204.92, 12.899)" fill="#007ec8"/><path d="M2.375,0A2.342,2.342,0,0,1,4.75,2.724c-.229,1.683-3.291,3.7-3.241,3.638C1.717,4.9,0,4.228,0,2.724A2.567,2.567,0,0,1,2.375,0Z" transform="translate(209.104 18.692) rotate(74)" fill="#007ec8"/></g></svg>