<svg xmlns="http://www.w3.org/2000/svg" width="20" height="20" viewBox="0 0 20 20"><g transform="translate(-742 -212.803)" fill="none" stroke-miterlimit="10"><path d="M760.848,216.517l-7.714-3.476a2.825,2.825,0,0,0-2.268,0l-7.714,3.476A1.779,1.779,0,0,0,742,218.081V232.8h6.857v-8.787a1.044,1.044,0,0,1,1.143-.9h3.428a1.044,1.044,0,0,1,1.143.9V232.8H762V218.334A1.862,1.862,0,0,0,760.848,216.517Z" stroke="none"/><path d="M 752 214.8034973144531 C 751.8858642578125 214.8034973144531 751.7750244140625 214.8251342773438 751.6876831054688 214.8644866943359 L 744 218.3279724121094 L 744 230.8037719726562 L 746.8572387695312 230.8037719726562 L 746.8572387695312 224.0165710449219 C 746.8572387695312 223.1628723144531 747.2568969726562 222.3581695556641 747.9536743164062 221.8087768554688 C 748.520751953125 221.3616790771484 749.2474975585938 221.1154632568359 750.0000610351562 221.1154632568359 L 753.4283447265625 221.1154632568359 C 754.1810302734375 221.1154632568359 754.9078369140625 221.3616180419922 755.4749145507812 221.80859375 C 756.1719360351562 222.3579559326172 756.5716552734375 223.1627349853516 756.5716552734375 224.0165710449219 L 756.5716552734375 230.8037719726562 L 760 230.8037719726562 L 760 218.3343505859375 C 760 218.3321838378906 760 218.3300476074219 760 218.3279724121094 L 752.3123168945312 214.8644409179688 C 752.22509765625 214.8251495361328 752.1141967773438 214.8034973144531 752 214.8034973144531 M 752 212.8034973144531 C 752.3912353515625 212.8034973144531 752.782470703125 212.8826751708984 753.1339111328125 213.0410003662109 L 760.8483276367188 216.5165710449219 C 761.560546875 216.8371124267578 762 217.4343414306641 762 218.3343505859375 L 762 232.8037719726562 L 754.5716552734375 232.8037719726562 L 754.5716552734375 224.0165710449219 C 754.5716552734375 223.5187835693359 754.0599975585938 223.1154632568359 753.4283447265625 223.1154632568359 L 750.0000610351562 223.1154632568359 C 749.368896484375 223.1154632568359 748.8572387695312 223.5187835693359 748.8572387695312 224.0165710449219 L 748.8572387695312 232.8037719726562 L 742 232.8037719726562 L 742 218.0810089111328 C 742 217.4343414306641 742.439453125 216.8371124267578 743.1516723632812 216.5165710449219 L 750.8661499023438 213.0410003662109 C 751.217529296875 212.8826751708984 751.6087646484375 212.8034973144531 752 212.8034973144531 Z" stroke="none" fill="#fff"/></g></svg>