<svg xmlns="http://www.w3.org/2000/svg" width="53.42" height="46" viewBox="0 0 53.42 46"><g transform="translate(-157 -9)"><rect width="47" height="46" rx="23" transform="translate(157 9)" fill="#097db6"/><path d="M1.792,0A1.767,1.767,0,0,1,3.585,2.056C3.412,3.326,1.1,4.848,1.139,4.8,1.3,3.7,0,3.191,0,2.056A1.938,1.938,0,0,1,1.792,0Z" transform="matrix(0.94, 0.342, -0.342, 0.94, 204.92, 12.899)" fill="#007ec8"/><path d="M2.375,0A2.342,2.342,0,0,1,4.75,2.724c-.229,1.683-3.291,3.7-3.241,3.638C1.717,4.9,0,4.228,0,2.724A2.567,2.567,0,0,1,2.375,0Z" transform="translate(209.104 18.692) rotate(74)" fill="#007ec8"/></g><g transform="translate(-906.041 -208.535)"><path d="M931.382,230.438a.533.533,0,0,0-1.009.045c-.131.475-.609,2.04-.954,3.161l-1.191-5.087a.533.533,0,0,0-1.011,0c-.215.663-1.246,3.535-1.811,5.089l-.921-2.141-.02-.042a.534.534,0,0,0-.92-.01l-2.5,3.408.759.557,2.109-2.871,1.043,2.426.022.043a.534.534,0,0,0,.96-.075c.188-.5,1.113-3.056,1.712-4.748l1.289,5.512.38.216.418-.155.074-.21c.077-.221.72-2.3,1.145-3.711l.887,2.116a.533.533,0,0,0,.971.053l1.927-3.7-.834-.434-1.526,2.93Z" transform="translate(0 -2.313)" fill="#fff"/><path d="M937.712,231.4h-.381a5.126,5.126,0,1,0,5.126,5.126v-.381h-4.745Zm-.381,9.489a4.363,4.363,0,0,1-.381-8.709v4.727h4.728A4.37,4.37,0,0,1,937.331,240.89Z" transform="translate(0 -3.576)" fill="#fff" stroke="#fff" stroke-width="1"/><path d="M943.373,234.351l-.092.02.092-.021a5.087,5.087,0,0,0-.743-1.72l-.016-.027a5.138,5.138,0,0,0-.578-.7l-.012-.012a5.115,5.115,0,0,0-2.514-1.4l-.021,0a5.128,5.128,0,0,0-1.115-.123.382.382,0,0,0-.381.381v4.744a.382.382,0,0,0,.381.382h4.745a.382.382,0,0,0,.381-.382A5.2,5.2,0,0,0,943.373,234.351Z" transform="translate(0 -2.628)" fill="#fff"/><path d="M934.607,240.214H920.358V223.158h14.249v5.688h.858v-7.122a2.192,2.192,0,0,0-2.189-2.189H921.689a2.192,2.192,0,0,0-2.189,2.189v19.622a2.192,2.192,0,0,0,2.189,2.189h11.587a2.192,2.192,0,0,0,2.189-2.189v-3.739h-.858ZM921.689,220.29h11.587a1.388,1.388,0,0,1,1.331,1.435v.679H920.358v-.679A1.388,1.388,0,0,1,921.689,220.29Zm11.587,22.491H921.689a1.388,1.388,0,0,1-1.331-1.435v-.377h14.249v.377A1.388,1.388,0,0,1,933.276,242.78Z" transform="translate(1.541)" fill="#fff" stroke="#fff" stroke-width="1"/></g></svg>