<svg xmlns="http://www.w3.org/2000/svg" width="24" height="24" viewBox="0 0 24 24"><path d="M754,214.8a1.341,1.341,0,0,0-.539.108l-9.258,4.171a.652.652,0,0,0-.2.132V234.8h4.229v-8.545a2.973,2.973,0,0,1,1.163-2.335,3.573,3.573,0,0,1,2.208-.746h4.114a3.574,3.574,0,0,1,2.208.746,2.973,2.973,0,0,1,1.164,2.335V234.8H764V219.441c0-.266-.047-.287-.2-.358l-9.257-4.171A1.341,1.341,0,0,0,754,214.8m0-2a3.327,3.327,0,0,1,1.361.285l9.257,4.171A2.234,2.234,0,0,1,766,219.441V236.8h-8.914V226.259a1.253,1.253,0,0,0-1.372-1.081H751.6a1.252,1.252,0,0,0-1.371,1.081V236.8H742V219.137a2.135,2.135,0,0,1,1.382-1.877l9.257-4.171A3.327,3.327,0,0,1,754,212.8Z" transform="translate(-742 -212.803)" fill="#83bdda"/></svg>