<svg xmlns="http://www.w3.org/2000/svg" xmlns:xlink="http://www.w3.org/1999/xlink" width="40.094" height="50" viewBox="0 0 40.094 50"><defs><linearGradient id="a" x1="0.5" x2="0.684" y2="1.342" gradientUnits="objectBoundingBox"><stop offset="0" stop-color="#107fc8"/><stop offset="0.502" stop-color="#61c0ee"/><stop offset="0.783" stop-color="#7cc473"/><stop offset="0.793" stop-color="#7dc46d"/><stop offset="1" stop-color="#74c398"/></linearGradient></defs><g transform="translate(-624.75 -190.75)"><path d="M646.119,217.5a.89.89,0,0,0-1.685.076c-.22.792-1.017,3.408-1.594,5.281l-1.991-8.5a.89.89,0,0,0-1.688,0c-.36,1.106-2.083,5.9-3.026,8.5l-1.538-3.577-.035-.069a.891.891,0,0,0-1.536-.017l-4.182,5.693,1.268.93,3.523-4.8,1.743,4.053.036.071a.891.891,0,0,0,1.6-.125c.315-.838,1.86-5.1,2.86-7.931l2.154,9.208.634.361.7-.258.123-.351c.129-.368,1.2-3.844,1.913-6.2l1.482,3.535a.891.891,0,0,0,1.622.089l3.219-6.181-1.394-.726-2.548,4.9Z" transform="translate(-1.519 -8.535)" fill="url(#a)"/><path d="M667.7,222.269h-.637a8.563,8.563,0,1,0,8.563,8.564V230.2H667.7Zm-.637,15.853a7.289,7.289,0,0,1-.636-14.551v7.9h7.9A7.3,7.3,0,0,1,667.062,238.122Z" transform="translate(-12.524 -11.696)" fill="url(#a)"/><path d="M682.859,226.169l-.153.035.153-.036a8.584,8.584,0,0,0-.535-1.6,8.49,8.49,0,0,0-.707-1.272l-.026-.045a8.614,8.614,0,0,0-.966-1.176l-.019-.019a8.71,8.71,0,0,0-1.151-.979,8.534,8.534,0,0,0-3.049-1.362l-.035-.008a8.6,8.6,0,0,0-1.863-.206.637.637,0,0,0-.636.637v7.926a.637.637,0,0,0,.636.636h7.926a.637.637,0,0,0,.637-.636A8.621,8.621,0,0,0,682.859,226.169Z" transform="translate(-18.228 -10.668)" fill="url(#a)"/><path d="M652.423,233.832h-26.1V198.3h26.1v11.851H654V195.31a4.316,4.316,0,0,0-4.01-4.56H628.76a4.316,4.316,0,0,0-4.01,4.56v40.88a4.316,4.316,0,0,0,4.01,4.56h21.225a4.316,4.316,0,0,0,4.01-4.56V228.4h-1.572ZM628.76,192.322h21.225a2.758,2.758,0,0,1,2.438,2.987v1.415h-26.1V195.31A2.758,2.758,0,0,1,628.76,192.322Zm21.225,46.855H628.76a2.758,2.758,0,0,1-2.438-2.987V235.4h26.1v.786A2.758,2.758,0,0,1,649.985,239.178Z" fill="url(#a)"/></g></svg>