<svg xmlns="http://www.w3.org/2000/svg" width="25.495" height="34" viewBox="0 0 25.495 34"><path d="M24.559,6.407,18.988.836A3.187,3.187,0,0,0,16.738-.1H3.187A3.2,3.2,0,0,0,0,3.094v27.62A3.188,3.188,0,0,0,3.187,33.9H22.308A3.188,3.188,0,0,0,25.5,30.713V8.664A3.2,3.2,0,0,0,24.559,6.407Zm-2.51,2H17V3.352ZM3.187,30.713V3.094H13.81V10A1.59,1.59,0,0,0,15.4,11.592h6.9V30.713ZM19.8,21.172c-.81-.8-3.12-.578-4.276-.432a5.758,5.758,0,0,1-2.443-3.074,8.35,8.35,0,0,0,.359-3.718,1.48,1.48,0,0,0-2.828-.392,9.562,9.562,0,0,0,.465,4.455,53.314,53.314,0,0,1-2.35,4.94c-1.328.684-3.12,1.74-3.386,3.067-.219,1.049,1.726,3.665,5.053-2.071a32.917,32.917,0,0,1,4.541-1.335,8.834,8.834,0,0,0,3.7,1.129A1.534,1.534,0,0,0,19.8,21.172ZM6.646,26.338a7.961,7.961,0,0,1,2.018-2.324C7.4,26.026,6.646,26.384,6.646,26.338Zm5.418-12.655c.491,0,.445,2.131.12,2.709A5.567,5.567,0,0,1,12.064,13.683Zm-1.62,9.069a26.06,26.06,0,0,0,1.64-3.632,7.315,7.315,0,0,0,2,2.357A22.463,22.463,0,0,0,10.444,22.753Zm8.737-.332s-.332.4-2.476-.518C19.035,21.73,19.42,22.261,19.181,22.421Z" transform="translate(0 0.1)" fill="#e05346"/></svg>