<svg xmlns="http://www.w3.org/2000/svg" width="22.959" height="25" viewBox="0 0 22.959 25"><g transform="translate(-920.541 -219.035)"><path d="M931.382,230.438a.533.533,0,0,0-1.009.045c-.131.475-.609,2.04-.954,3.161l-1.191-5.087a.533.533,0,0,0-1.011,0c-.215.663-1.246,3.535-1.811,5.089l-.921-2.141-.02-.042a.534.534,0,0,0-.92-.01l-2.5,3.408.759.557,2.109-2.871,1.043,2.426.022.043a.534.534,0,0,0,.96-.075c.188-.5,1.113-3.056,1.712-4.748l1.289,5.512.38.216.418-.155.074-.21c.077-.221.72-2.3,1.145-3.711l.887,2.116a.533.533,0,0,0,.971.053l1.927-3.7-.834-.434-1.526,2.93Z" transform="translate(0 -2.313)" fill="#fff"/><path d="M937.712,231.4h-.381a5.126,5.126,0,1,0,5.126,5.126v-.381h-4.745Zm-.381,9.489a4.363,4.363,0,0,1-.381-8.709v4.727h4.728A4.37,4.37,0,0,1,937.331,240.89Z" transform="translate(0 -3.576)" fill="#fff"/><path d="M937.331,230.9h.881v4.745h4.745v.881a5.625,5.625,0,1,1-5.626-5.626Zm3.762,6.507H936.45v-4.643a3.861,3.861,0,1,0,4.643,4.643Z" transform="translate(0 -3.576)" fill="#fff"/><path d="M943.373,234.351l-.092.02.092-.021a5.087,5.087,0,0,0-.743-1.72l-.016-.027a5.138,5.138,0,0,0-.578-.7l-.012-.012a5.115,5.115,0,0,0-2.514-1.4l-.021,0a5.128,5.128,0,0,0-1.115-.123.382.382,0,0,0-.381.381v4.744a.382.382,0,0,0,.381.382h4.745a.382.382,0,0,0,.381-.382A5.2,5.2,0,0,0,943.373,234.351Z" transform="translate(0 -2.628)" fill="#fff"/><path d="M934.607,240.214H920.358V223.158h14.249v5.688h.858v-7.122a2.192,2.192,0,0,0-2.189-2.189H921.689a2.192,2.192,0,0,0-2.189,2.189v19.622a2.192,2.192,0,0,0,2.189,2.189h11.587a2.192,2.192,0,0,0,2.189-2.189v-3.739h-.858ZM921.689,220.29h11.587a1.388,1.388,0,0,1,1.331,1.435v.679H920.358v-.679A1.388,1.388,0,0,1,921.689,220.29Zm11.587,22.491H921.689a1.388,1.388,0,0,1-1.331-1.435v-.377h14.249v.377A1.388,1.388,0,0,1,933.276,242.78Z" transform="translate(1.541)" fill="#fff"/><path d="M933.276,244.035H921.689A2.692,2.692,0,0,1,919,241.346V221.724a2.692,2.692,0,0,1,2.689-2.689h11.587a2.692,2.692,0,0,1,2.689,2.689v7.622h-1.858v-5.688H920.858v16.057h13.249v-2.608h1.858v4.239A2.692,2.692,0,0,1,933.276,244.035Zm-12.411-2.566a.872.872,0,0,0,.823.811h11.587a.872.872,0,0,0,.823-.811Zm-.007-19.566h13.249v-.179a.888.888,0,0,0-.831-.935H921.689a.888.888,0,0,0-.831.935Z" transform="translate(1.541)" fill="#fff"/></g></svg>