<svg xmlns="http://www.w3.org/2000/svg" xmlns:xlink="http://www.w3.org/1999/xlink" width="29.527" height="30.129" viewBox="0 0 29.527 30.129">
  <defs>
    <clipPath id="clip-path">
      <path id="패스_1153" data-name="패스 1153" d="M204.316,74.915a17.293,17.293,0,0,0-.274-3.081H189.854v5.827h8.107a6.929,6.929,0,0,1-3.006,4.547v3.78h4.869a14.692,14.692,0,0,0,4.492-11.072Zm0,0" transform="translate(-189.854 -71.834)" fill="none" clip-rule="evenodd"/>
    </clipPath>
    <clipPath id="clip-path-2">
      <path id="패스_1154" data-name="패스 1154" d="M167.8,98.812a14.383,14.383,0,0,0,9.97-3.65l-4.869-3.78a9.088,9.088,0,0,1-13.531-4.773h-5.033v3.9a15.058,15.058,0,0,0,13.462,8.3Zm0,0" transform="translate(-154.342 -86.609)" fill="none" clip-rule="evenodd"/>
    </clipPath>
    <clipPath id="clip-path-3">
      <path id="패스_1155" data-name="패스 1155" d="M156.75,70.84a8.907,8.907,0,0,1,0-5.724v-3.9h-5.033a15.082,15.082,0,0,0,0,13.53l5.033-3.9Zm0,0" transform="translate(-150.115 -61.213)" fill="none" clip-rule="evenodd"/>
    </clipPath>
    <clipPath id="clip-path-4">
      <path id="패스_1156" data-name="패스 1156" d="M167.8,45.312a8.14,8.14,0,0,1,5.759,2.253l4.32-4.32A14.476,14.476,0,0,0,167.8,39.32a15.059,15.059,0,0,0-13.462,8.3l5.033,3.9a8.978,8.978,0,0,1,8.429-6.211Zm0,0" transform="translate(-154.342 -39.32)" fill="none" clip-rule="evenodd"/>
    </clipPath>
  </defs>
  <g id="GOOGLE" transform="translate(-130.248 -22.946)">
    <g id="그룹_108" data-name="그룹 108" transform="translate(130.248 22.946)">
      <g id="그룹_101" data-name="그룹 101" transform="translate(15.065 12.326)">
        <g id="그룹_100" data-name="그룹 100" clip-path="url(#clip-path)">
          <rect id="사각형_1663" data-name="사각형 1663" width="31.2" height="30.892" transform="translate(-8.369 -8.369)" fill="#3e82f1"/>
        </g>
      </g>
      <g id="그룹_103" data-name="그룹 103" transform="translate(1.712 21.927)">
        <g id="그룹_102" data-name="그룹 102" transform="translate(0 -4)" clip-path="url(#clip-path-2)">
          <rect id="사각형_1664" data-name="사각형 1664" width="40.171" height="28.941" transform="translate(-8.369 -8.369)" fill="#32a753"/>
        </g>
      </g>
      <g id="그룹_105" data-name="그룹 105" transform="translate(0 8.299)">
        <g id="그룹_104" data-name="그룹 104" clip-path="url(#clip-path-3)">
          <rect id="사각형_1665" data-name="사각형 1665" width="23.374" height="30.269" transform="translate(-8.369 -8.369)" fill="#f9bb00"/>
        </g>
      </g>
      <g id="그룹_107" data-name="그룹 107" transform="translate(1.602)">
        <g id="그룹_106" data-name="그룹 106" clip-path="url(#clip-path-4)">
          <rect id="사각형_1666" data-name="사각형 1666" width="40.28" height="28.941" transform="translate(-8.369 -8.369)" fill="#e74133"/>
        </g>
      </g>
    </g>
  </g>
</svg>
