<svg xmlns="http://www.w3.org/2000/svg" width="22.001" height="23.999" viewBox="0 0 22.001 23.999"><path d="M-411,22v-.042a8.989,8.989,0,0,0-1.188-4.472,9.064,9.064,0,0,0-2.09-2.474,10.462,10.462,0,0,1-5.264,1.378,10.352,10.352,0,0,1-5.768-1.7A8.982,8.982,0,0,0-429,21.957V22h18m-8.5-11A4.5,4.5,0,0,0-415,6.5,4.5,4.5,0,0,0-419.5,2,4.5,4.5,0,0,0-424,6.5a4.5,4.5,0,0,0,4.5,4.5M-409,24h-22V21.957a10.984,10.984,0,0,1,5.86-9.727,7.809,7.809,0,0,0,5.6,2.159,7.974,7.974,0,0,0,5.259-1.831,11.071,11.071,0,0,1,3.829,3.93A10.994,10.994,0,0,1-409,21.957Zm-10.5-11A6.5,6.5,0,0,1-426,6.5,6.5,6.5,0,0,1-419.5,0,6.5,6.5,0,0,1-413,6.5,6.5,6.5,0,0,1-419.5,13Z" transform="translate(431 0)" fill="#83bdda"/></svg>