<svg xmlns="http://www.w3.org/2000/svg" xmlns:xlink="http://www.w3.org/1999/xlink" width="197" height="115.236" viewBox="0 0 197 115.236"><defs><radialGradient id="a" cx="0.25" cy="0.402" r="0.549" gradientTransform="translate(-0.056 -0.025) scale(1.36 0.96)" gradientUnits="objectBoundingBox"><stop offset="0" stop-color="#00a4e8"/><stop offset="0.181" stop-color="#009fe3"/><stop offset="0.376" stop-color="#0092d7"/><stop offset="0.578" stop-color="#007cc3"/><stop offset="0.785" stop-color="#005ea7"/><stop offset="0.994" stop-color="#003884"/><stop offset="1" stop-color="#003783"/></radialGradient></defs><path d="M212.873,254.6c13.128,17.962.71,27.56-15.076,41.951-14.807,13.488-24.445,26.007-20.206,44.081-13.648-23.4-.081-41.951,10.5-51.812C204.756,273.288,214.36,265.249,212.873,254.6Z" transform="translate(-171.84 -254.597)" fill="#8abb2a"/><g transform="translate(18.284 12.002)"><g transform="translate(0 0)"><path d="M229.258,361.153c20.137,0,33.578-12.309,34.256-31.715.9-25.368-23.737-49.923-32.586-58.315,2.064,13.067-7.707,20.908-19.266,31.666-8.792,8.2-13.872,16.36-14.568,26.037C195.767,347.257,211.445,361.153,229.258,361.153Z" transform="translate(-197.015 -271.123)" fill="url(#a)"/></g></g><g transform="translate(9.421 65.323)"><path d="M257.667,374.93c-11.623,11.61-30.316,15.938-46.567,9.977-17.686-6.48-26.206-23.138-22.738-39.769-8.817,18.732-.752,39.781,19.064,47.227C226.035,399.35,248.314,392.42,257.667,374.93Z" transform="translate(-184.812 -345.138)" fill="#5ab2e5"/></g><path d="M257.8,359.828H236.426c-10.7,0-18.605-6.1-18.605-20.355s7.91-19.982,18.605-19.982h17.185c10.7,0,18.245,3.834,18.245,12.586s-7.548,12.578-18.245,12.578H231.237v-7.03h19.48a5.555,5.555,0,1,0,0-11.106H240.339c-4.558,0-6.727,2.026-6.727,5.979v14.33c0,3.952,2.169,5.973,6.727,5.973h27.827C267.2,357.49,263.062,359.828,257.8,359.828Z" transform="translate(-184.599 -272.632)" fill="#fff"/><g transform="translate(92.393 47.797)"><path d="M334.348,320.781V342.9l-17.673-17.238a15.74,15.74,0,0,0-12.253-4.876h-4.344v38.473h13.868V337.139l17.673,17.238a15.739,15.739,0,0,0,12.252,4.876h4.343V320.781Z" transform="translate(-300.078 -320.781)" fill="#003783"/><path d="M410.715,336.332H394.8c-3.112,0-4.685-1.442-4.685-4.091s1.573-4.091,4.685-4.091h30.035c0-3.278-2.8-7.369-10.344-7.369H389.431c-9.216,0-14.467,3.685-14.467,11.46s5.251,11.46,14.467,11.46h15.911c3.112,0,4.685,1.442,4.685,4.091s-1.573,4.09-4.685,4.09H375.306c0,3.278,2.8,7.37,10.344,7.37h25.065c9.218,0,14.467-3.687,14.467-11.461S419.933,336.332,410.715,336.332Z" transform="translate(-320.576 -320.781)" fill="#003783"/></g></svg>