<svg xmlns="http://www.w3.org/2000/svg" xmlns:xlink="http://www.w3.org/1999/xlink" width="315.5" height="214.016" viewBox="0 0 315.5 214.016"><defs><filter id="a" x="-9" y="-3" width="333.5" height="232.016" filterUnits="userSpaceOnUse"><feOffset dy="6" input="SourceAlpha"/><feGaussianBlur stdDeviation="3" result="b"/><feFlood flood-opacity="0.161"/><feComposite operator="in" in2="b"/><feComposite in="SourceGraphic"/></filter><clipPath id="c"><g transform="matrix(1, 0, 0, 1, 0, 0)" filter="url(#a)"><path d="M22.14,0H293.359A22.046,22.046,0,0,1,315.5,21.95V192.066a22.046,22.046,0,0,1-22.14,21.95H22.14A22.046,22.046,0,0,1,0,192.066V21.95A22.046,22.046,0,0,1,22.14,0Z" transform="translate(37 215)" fill="#fff"/></g></clipPath></defs><g transform="translate(-25 -230.5)"><g transform="translate(-12 15.5)" opacity="0.999" clip-path="url(#c)"><path d="M3490,344.806s18.965-46.606,75.38-18.168,114.9-4.225,114.9-4.225,43.585-28.086,79.862,0,51.393,22.393,51.393,22.393V200.362H3490Z" transform="translate(-3453 9.299)" fill="#beebe6" opacity="0.563"/><path d="M3811.531,343.564s-15.02-34.663-60.523-12.874-109.6-7.461-109.6-7.461-63.19-21.527-99.467,7.461c-7.473,5.971-14.072,9.724-20.12,12.023-21.948,8.349-31.825-6.349-31.825-6.349v-136h321.531Z" transform="translate(-3455.462 9.299)" fill="#a1d6ed" opacity="0.311"/></g></g></svg>